<svg version="1" xmlns="http://www.w3.org/2000/svg" width="2476" height="2476" viewBox="0 0 1857.000000 1857.000000"><path d="M935.8 23.5c-.2.2-9 .6-19.7 1-10.7.3-20.9.8-22.5 1-1.7.2-6.7.6-11.1.9-4.4.4-12 1.1-17 1.6-4.9.5-11.7 1.2-15 1.5-3.3.3-7.1.7-8.5 1-1.4.2-4.7.7-7.5 1-12.1 1.4-45.4 7.2-69.5 12.1-4.7.9-39.4 9.6-44 11-2.5.7-9.9 3-16.5 5-70.3 21.1-135 51.7-196.1 92.4-13.4 9-42 29.8-46 33.5-.6.5-2.9 2.3-5 4-2.1 1.6-5.2 4.2-6.9 5.6-1.6 1.4-4.3 3.7-5.9 5-3.7 3.1-3.4 2.8-14.6 12.9-92.6 82.8-164.3 188.5-215.7 318-9.3 23.4-20.4 55.7-27.2 79-1.7 5.8-3.8 12.5-4.6 15-.8 2.5-1.7 5.6-1.9 7-.3 1.4-2.3 9.2-4.6 17.5-6 22.6-12.4 51.4-18.5 83.5-3.6 19.1-9.1 56.3-11 73.5-.4 3.3-.8 7.3-1 9-.5 3.3-2.3 21-3 29-.8 9-1.5 17.8-2 28-.4 5.5-.8 11.3-1 13-2.4 18.4-2.4 122 0 143 .2 1.6.6 7.3 1 12.5 2 30 9.8 85.2 15.9 114 .3 1.4 1 4.7 1.6 7.5 2.2 11.8 4.5 21.4 10 43 53.4 209 175.3 386.4 341.5 497.2 34.1 22.7 78.6 47.4 108.5 60.3 4.1 1.7 9.9 4.3 12.8 5.7 9.7 4.4 42.4 16.9 59.2 22.6 56.1 18.8 120.9 32.7 178 38.2 3 .3 8 .7 11 1 25.3 2.4 40.4 3 79.5 3 33.2 0 54.5-.6 68.2-2 2.1-.2 6.7-.6 10.3-1 10.7-.9 38.9-4.5 48-6 4.7-.8 10.3-1.6 12.5-2 2.2-.3 4.7-.7 5.5-1 .8-.2 3.3-.6 5.5-1 23.5-3.5 77.3-17.6 102.3-26.9 66.3-24.7 125.6-53.5 166.7-80.9 10.6-7.1 27.1-19.1 28.5-20.7.3-.3 3.2-2.8 6.5-5.5 3.3-2.8 10-8.9 15-13.6 4.9-4.7 12.6-11.9 17-16 21.3-19.8 41.4-41.9 60.6-66.4l9.4-12.1 4.4 18.6c2.4 10.2 6.5 27.5 9.1 38.5 10.3 43.2 27 114 28.1 119 .5 2.2 4.9 20.9 9.8 41.5l8.9 37.5 73 .3 73 .2V883.2l-2.1-.4c-1.2-.2-58.2-.3-126.7-.3h-124.5v194l22.3.1c12.2.1 22.9.5 23.8.8 1.3.5 1.4 4.9 1 35.3-.2 19.2-.7 35.9-.9 37.3-.3 1.4-.8 6.2-1.1 10.6-.6 10-2.1 22-4.6 38.4-10.8 69.4-32.2 130.6-67.2 192-34.7 60.8-86.5 114.5-151.8 157.3-53.2 34.8-103.9 56.6-169.5 73.1-13.3 3.3-45.2 9.7-56 11.1-2.7.4-5.9.8-7 1-2.6.4-28.5 3.3-35 3.9-26.9 2.7-93.8 2.8-118 .1-2.2-.2-6.2-.6-9-.9-68.8-6.9-137.9-27.3-198-58.5-48.3-25.1-91.9-57.3-131.6-97.2-46-46.3-83.5-99.1-115.2-162.4-9.2-18.4-21.7-47.2-28.2-64.5-16-43.5-26.5-79.6-35.4-122.7-3-14.6-8.3-45.1-9.6-54.8-.3-2.8-1-7.9-1.5-11.5-.5-3.6-1.2-9.2-1.5-12.5-.3-3.3-.8-7.8-1-10-.2-2.2-.7-7.2-1-11-.3-3.9-.8-8.8-1-11-.2-2.2-.7-10.1-1-17.5-.4-7.4-.8-16.4-1-20-.5-8.3-.5-61.1 0-71 1.3-28.3 1.7-35.9 2-39 .2-1.9.6-7.8 1-13 .3-5.2 1-13.1 1.5-17.5s1.2-10.9 1.5-14.5c.6-6.3 5.1-41.5 5.9-45.5.2-1.1.6-4.1 1-6.6.9-6.1 1.2-8.1 4.2-23.9 12.2-66.5 31.6-131.7 55.2-186 10.5-24.2 19.4-42.4 30.3-62.3 45-81.6 103-147.1 172.2-194.5 29.8-20.4 66-39.6 98.2-52.2 4.4-1.7 8.9-3.5 10-4 3.7-1.7 32-10.8 43.1-13.9 24.8-6.8 65.8-14.9 83.9-16.6 3.9-.3 7.7-.8 8.5-1 .8-.2 5.3-.6 10-1s9.8-.8 11.4-1c11.8-1.4 49.9-1.9 162.6-1.9l129.5-.1v670c.1 368.5.4 669.9.8 669.8 2.4-.7 26.1-13.2 36.2-19.1 22-12.7 57.6-37.5 71.6-49.6 1.9-1.7 6.2-5.4 9.4-8.1 20.4-17.2 48.8-46.3 65-66.5 3.3-4.1 6.2-7.7 6.5-8 4.4-4.1 32-45.1 38.6-57.4l2.6-5-.1-563-.1-563.1h143.7c79.1.1 144.4-.1 145.1-.3.9-.3 1.2-20.7 1.2-97.2V23.2h-392.5c-215.8 0-392.5.2-392.7.3z"/><path d="M960.3 979.5l.2 97h204l.1-96.8c.1-70.2-.2-96.7-1-96.8-.6-.1-46.7-.2-102.3-.3l-101.3-.1.3 97zM1420.4 1719.8c-46.4 36.7-111.7 71.4-196.4 104.6-10.7 4.2-20.4 8.1-21.5 8.6-1.2.5 44.4.9 113.3.9l115.2.1v-61c0-33.6-.2-61-.4-61-.1 0-4.8 3.5-10.2 7.8z"/></svg>